HIERARCHY
ROOT Hips
{
  OFFSET 0.0273292 -0.436096 0.279869
  CHANNELS 6 Xposition Yposition Zposition Zrotation Xrotation Yrotation
  JOINT LHipJoint
  {
    OFFSET 0 0 0
    CHANNELS 6 Xposition Yposition Zposition Zrotation Xrotation Yrotation
    JOINT LeftUpLeg
    {
      OFFSET 1.36306 -1.79463 0
      CHANNELS 6 Xposition Yposition Zposition Zrotation Xrotation Yrotation
      JOINT LeftLeg
      {
        OFFSET 2.44807 -6.72613 0.000295034
        CHANNELS 6 Xposition Yposition Zposition Zrotation Xrotation Yrotation
        JOINT LeftFoot
        {
          OFFSET 2.5622 -7.03959 3.59965e-05
          CHANNELS 6 Xposition Yposition Zposition Zrotation Xrotation Yrotation
          JOINT LeftToeBase
          {
            OFFSET 0.15764 -0.43311 2.32255
            CHANNELS 6 Xposition Yposition Zposition Zrotation Xrotation Yrotation
            End Site
            {
              OFFSET 0 0 0
            }
          }
        }
      }
    }
  }
  JOINT RHipJoint
  {
    OFFSET 0 0 0
    CHANNELS 6 Xposition Yposition Zposition Zrotation Xrotation Yrotation
    JOINT RightUpLeg
    {
      OFFSET -1.30552 -1.79463 0
      CHANNELS 6 Xposition Yposition Zposition Zrotation Xrotation Yrotation
      JOINT RightLeg
      {
        OFFSET -2.54234 -6.98562 -0.000396375
        CHANNELS 6 Xposition Yposition Zposition Zrotation Xrotation Yrotation
        JOINT RightFoot
        {
          OFFSET -2.56826 -7.05623 -4.47982e-05
          CHANNELS 6 Xposition Yposition Zposition Zrotation Xrotation Yrotation
          JOINT RightToeBase
          {
            OFFSET -0.16473 -0.45259 2.36315
            CHANNELS 6 Xposition Yposition Zposition Zrotation Xrotation Yrotation
            End Site
            {
              OFFSET 0 0 0
            }
          }
        }
      }
    }
  }
  JOINT LowerBack
  {
    OFFSET 0 0 0
    CHANNELS 6 Xposition Yposition Zposition Zrotation Xrotation Yrotation
    JOINT Spine
    {
      OFFSET 0.0282699 2.03559 0
      CHANNELS 6 Xposition Yposition Zposition Zrotation Xrotation Yrotation
      JOINT Spine1
      {
        OFFSET 0.05672 2.04885 -0.04275
        CHANNELS 6 Xposition Yposition Zposition Zrotation Xrotation Yrotation
        JOINT Neck
        {
          OFFSET 0 0 0
          CHANNELS 6 Xposition Yposition Zposition Zrotation Xrotation Yrotation
          JOINT Neck1
          {
            OFFSET -0.05417 1.74624 0.17202
            CHANNELS 6 Xposition Yposition Zposition Zrotation Xrotation Yrotation
            JOINT Head
            {
              OFFSET 0.10407 1.76136 -0.12397
              CHANNELS 6 Xposition Yposition Zposition Zrotation Xrotation Yrotation
              End Site
              {
                OFFSET 0 0 0
              }
            }
          }
        }
        JOINT LeftShoulder
        {
          OFFSET 0 0 0
          CHANNELS 6 Xposition Yposition Zposition Zrotation Xrotation Yrotation
          JOINT LeftArm
          {
            OFFSET 3.36241 1.20089 -0.311211
            CHANNELS 6 Xposition Yposition Zposition Zrotation Xrotation Yrotation
            JOINT LeftForeArm
            {
              OFFSET 4.983 0.000197398 0.000166057
              CHANNELS 6 Xposition Yposition Zposition Zrotation Xrotation Yrotation
              JOINT LeftHand
              {
                OFFSET 3.48356 0 1.87849e-05
                CHANNELS 6 Xposition Yposition Zposition Zrotation Xrotation Yrotation
                JOINT LeftFingerBase
                {
                  OFFSET 0 0 0
                  CHANNELS 6 Xposition Yposition Zposition Zrotation Xrotation Yrotation
                  JOINT LeftHandIndex1
                  {
                    OFFSET 0.71526 0 0
                    CHANNELS 6 Xposition Yposition Zposition Zrotation Xrotation Yrotation
                    End Site
                    {
                      OFFSET 0 0 0
                    }
                  }
                }
                JOINT LThumb
                {
                  OFFSET 0 0 0
                  CHANNELS 6 Xposition Yposition Zposition Zrotation Xrotation Yrotation
                  End Site
                  {
                    OFFSET 0 0 0
                  }
                }
              }
            }
          }
        }
        JOINT RightShoulder
        {
          OFFSET 0 0 0
          CHANNELS 6 Xposition Yposition Zposition Zrotation Xrotation Yrotation
          JOINT RightArm
          {
            OFFSET -3.1366 1.37405 -0.404651
            CHANNELS 6 Xposition Yposition Zposition Zrotation Xrotation Yrotation
            JOINT RightForeArm
            {
              OFFSET -5.2419 -5.8808e-05 -0.000165864
              CHANNELS 6 Xposition Yposition Zposition Zrotation Xrotation Yrotation
              JOINT RightHand
              {
                OFFSET -3.44417 0 -2.00002e-05
                CHANNELS 6 Xposition Yposition Zposition Zrotation Xrotation Yrotation
                JOINT RightFingerBase
                {
                  OFFSET 0 0 0
                  CHANNELS 6 Xposition Yposition Zposition Zrotation Xrotation Yrotation
                  JOINT RightHandIndex1
                  {
                    OFFSET -0.62253 0 0
                    CHANNELS 6 Xposition Yposition Zposition Zrotation Xrotation Yrotation
                    End Site
                    {
                      OFFSET 0 0 0
                    }
                  }
                }
                JOINT RThumb
                {
                  OFFSET 0 0 0
                  CHANNELS 6 Xposition Yposition Zposition Zrotation Xrotation Yrotation
                  End Site
                  {
                    OFFSET 0 0 0
                  }
                }
              }
            }
          }
        }
      }
    }
  }
}
MOTION
Frames:	4
Frame Time:	0.00833333
-0.0319052 0.485604 -0.239283 -0 -4.51695 -0 0 0 0 0 0 -0 1.36306 -1.79463 9.73541e-08 -59.9364 -70.7493 -63.0238 2.44799 -6.72617 -0.000846441 -104.413 65.5183 125.224 2.5622 -7.03959 2.64472e-05 -14.9969 -44.2765 -25.091 0.15764 -0.43311 2.32255 -1.59028e-15 -6.36111e-15 -0 0 0 0 0 0 -0 -1.30552 -1.79463 9.73541e-08 60.4371 -70.2 62.7975 -2.54233 -6.98561 -0.00138019 107.477 64.4797 -128.828 -2.56826 -7.05623 8.14803e-06 15.3279 -46.3249 26.2815 -0.16473 -0.45259 2.36315 1.59028e-15 0 -0 0 0 0 0 0 -0 0.0282702 2.03559 -3.75783e-09 -0 -3.47465 -0 0.05672 2.04885 -0.04275 0 0 -0 0 0 0 0 0 -0 -0.05417 1.74624 0.17202 0.635542 7.3302 43.5583 0.10407 1.76136 -0.12397 5.51738e-33 9.93923e-17 -3.18055e-15 0 0 0 0 0 -0 3.36241 1.20089 -0.31121 -68.8002 -45.2733 -39.6586 4.983 -9.04896e-06 -7.16678e-05 -0.0778191 -0.878329 -10.1007 3.48356 -9.45657e-07 -9.97728e-06 6.36111e-15 0 0.000166891 0 0 0 3.18055e-15 0 -1.59028e-15 0.71526 8.88178e-16 0 3.18055e-15 0 -1.59028e-15 0 0 0 3.18055e-15 0 -1.59028e-15 0 0 0 0 0 -0 -3.1366 1.37405 -0.40465 64.5965 -41.7711 55.3605 -5.2419 0.000137617 -0.000588533 0.153252 -1.23564 14.2748 -3.44417 8.1605e-07 -9.14824e-06 -6.36111e-15 7.95139e-16 -0.000155661 0 0 0 6.36111e-15 0 -0 -0.62253 0 -4.44089e-16 6.36111e-15 1.59028e-15 -1.59028e-15 0 0 0 6.36111e-15 0 -0 
-0.0300588 0.487218 -0.233375 -1.31922 -4.51884 1.69401 0 0 0 0 0 -0 1.36306 -1.79463 9.73541e-08 -59.4392 -70.6175 -62.4988 2.44799 -6.72617 -0.000846441 -104.519 65.4819 125.342 2.5622 -7.03959 2.64472e-05 -15.2025 -44.5665 -25.3632 0.15764 -0.43311 2.32255 -7.95139e-15 -6.36111e-15 1.59028e-15 0 0 0 0 0 -0 -1.30552 -1.79463 9.73541e-08 60.0135 -70.0935 62.3509 -2.54233 -6.98561 -0.00138019 107.86 64.323 -129.247 -2.56826 -7.05623 8.14803e-06 15.5732 -46.6471 26.5939 -0.16473 -0.45259 2.36315 0 0 -0 0 0 0 0 0 -0 0.0282702 2.03559 -3.75783e-09 0.479656 -3.47022 -2.3997 0.05672 2.04885 -0.04275 -6.21202e-17 -1.59028e-15 -9.93923e-17 0 0 0 -1.61513e-16 -3.18055e-15 -0 -0.05417 1.74624 0.17202 0.606037 7.30196 43.8488 0.10407 1.76136 -0.12397 1.98785e-16 9.93923e-17 3.18055e-15 0 0 0 -1.61513e-16 -3.18055e-15 -0 3.36241 1.20089 -0.31121 -69.9411 -47.7811 -39.0637 4.983 -9.04896e-06 -7.16678e-05 -0.10002 -1.02312 -11.7954 3.48356 -9.45657e-07 -9.97728e-06 1.29699e-05 4.77083e-15 0.000198631 0 0 0 -3.18055e-15 1.59028e-15 -3.18055e-15 0.71526 -4.44089e-16 0 -1.27222e-14 0 1.59028e-15 0 0 0 -3.18055e-15 1.59028e-15 -3.18055e-15 0 0 0 -1.61513e-16 -3.18055e-15 -0 -3.1366 1.37405 -0.40465 68.3676 -45.6848 56.2143 -5.2419 0.000137617 -0.000588533 0.161453 -1.26733 14.648 -3.44417 8.1605e-07 -9.14824e-06 4.44777e-21 1.59028e-15 -0.000160248 0 0 0 -3.18055e-15 -2.38542e-15 -0 -0.62253 -4.44089e-16 -8.88178e-16 6.36111e-15 7.95139e-16 7.95139e-16 0 0 0 -3.18055e-15 -2.38542e-15 -0 
-0.0295644 0.491323 -0.218531 -2.70786 -4.50264 5.42076 0 0 0 4.47266e-16 0 1.59028e-15 1.36306 -1.79463 9.73541e-08 -57.9552 -70.2983 -60.9286 2.44799 -6.72617 -0.000846441 -104.575 65.4645 125.404 2.5622 -7.03959 2.64472e-05 -15.2897 -44.6869 -25.4782 0.15764 -0.43311 2.32255 -2.78299e-15 -6.36111e-15 -0 0 0 0 4.47266e-16 0 1.59028e-15 -1.30552 -1.79463 9.73541e-08 58.7298 -69.8146 60.9935 -2.54233 -6.98561 -0.00138019 108.064 64.2475 -129.471 -2.56826 -7.05623 8.14803e-06 15.6778 -46.782 26.7267 -0.16473 -0.45259 2.36315 3.97569e-15 3.18055e-15 -0 0 0 0 4.47266e-16 0 1.59028e-15 0.0282702 2.03559 -3.75783e-09 1.65258 -3.45175 -5.75073 0.05672 2.04885 -0.04275 3.72721e-17 1.59028e-15 2.48481e-17 0 0 0 3.41661e-17 1.59028e-15 2.48481e-17 -0.05417 1.74624 0.17202 0.590931 7.28736 43.998 0.10407 1.76136 -0.12397 5.51738e-33 9.93923e-17 -3.18055e-15 0 0 0 3.41661e-17 1.59028e-15 2.48481e-17 3.36241 1.20089 -0.31121 -68.1984 -50.2788 -34.5233 4.983 -9.04896e-06 -7.16678e-05 -0.180279 -1.3723 -15.9229 3.48356 -9.45657e-07 -9.97728e-06 4.15038e-05 0 0.000268458 0 0 0 -3.18055e-15 -1.59028e-15 -1.59028e-15 0.71526 4.44089e-16 0 4.41391e-32 -1.59028e-15 1.59028e-15 0 0 0 -3.18055e-15 -1.59028e-15 -1.59028e-15 0 0 0 3.41661e-17 1.59028e-15 2.48481e-17 -3.1366 1.37405 -0.40465 67.7551 -50.5557 51.6992 -5.2419 0.000137617 -0.000588533 0.182798 -1.34408 15.5573 -3.44417 8.1605e-07 -9.14824e-06 -3.18055e-15 0 -0.000171589 0 0 0 3.18055e-15 7.95139e-16 -0 -0.62253 -4.44089e-16 0 3.18055e-15 7.95139e-16 -3.97569e-16 0 0 0 3.18055e-15 7.95139e-16 -0 
-0.0292718 0.496814 -0.199066 -3.8071 -4.46623 9.14723 0 0 0 3.97569e-16 1.59028e-15 3.18055e-15 1.36306 -1.79463 9.73541e-08 -55.7024 -69.7841 -58.5368 2.44799 -6.72617 -0.000846441 -104.598 65.4593 125.429 2.5622 -7.03959 2.64472e-05 -15.3269 -44.738 -25.527 0.15764 -0.43311 2.32255 5.26779e-15 0 -1.98785e-15 0 0 0 3.97569e-16 1.59028e-15 3.18055e-15 -1.30552 -1.79463 9.73541e-08 56.7032 -69.3461 58.8418 -2.54233 -6.98561 -0.00138019 108.148 64.2242 -129.563 -2.56826 -7.05623 8.14803e-06 15.7223 -46.839 26.783 -0.16473 -0.45259 2.36315 3.18055e-15 -3.18055e-15 3.18055e-15 0 0 0 3.97569e-16 1.59028e-15 3.18055e-15 0.0282702 2.03559 -3.75783e-09 2.84971 -3.42245 -8.73078 0.05672 2.04885 -0.04275 -1.61513e-16 1.59028e-15 -1.98785e-16 0 0 0 -8.69683e-17 3.18055e-15 -9.93923e-17 -0.05417 1.74624 0.17202 0.585372 7.28196 44.053 0.10407 1.76136 -0.12397 0 0 -6.36111e-15 0 0 0 -8.69683e-17 3.18055e-15 -9.93923e-17 3.36241 1.20089 -0.31121 -64.9395 -52.484 -28.4316 4.983 -9.04896e-06 -7.16678e-05 -0.329906 -1.7937 -21.0487 3.48356 -9.45657e-07 -9.97728e-06 7.00377e-05 0 0.000338286 0 0 0 -2.20695e-32 -1.59028e-15 -7.95139e-16 0.71526 -8.88178e-16 -4.44089e-16 -6.36111e-15 0 7.95139e-16 0 0 0 -2.20695e-32 -1.59028e-15 -7.95139e-16 0 0 0 -8.69683e-17 3.18055e-15 -9.93923e-17 -3.1366 1.37405 -0.40465 64.4251 -55.3934 44.1627 -5.2419 0.000137617 -0.000588533 0.211893 -1.43856 16.6872 -3.44417 8.1605e-07 -9.14824e-06 -2.58205e-21 -7.95139e-16 -0.000186056 0 0 0 3.18055e-15 -7.95139e-16 7.95139e-16 -0.62253 -8.88178e-16 0 2.20695e-32 -7.95139e-16 1.59028e-15 0 0 0 3.18055e-15 -7.95139e-16 7.95139e-16 
